<svg width="176" height="57" viewBox="0 0 176 57" fill="none" xmlns="http://www.w3.org/2000/svg">
<path d="M2.656 10.6H12.832C15.264 10.6 17.408 11.0693 19.264 12.008C21.1413 12.9253 22.592 14.2267 23.616 15.912C24.6613 17.5973 25.184 19.56 25.184 21.8C25.184 24.04 24.6613 26.0027 23.616 27.688C22.592 29.3733 21.1413 30.6853 19.264 31.624C17.408 32.5413 15.264 33 12.832 33H2.656V10.6ZM12.576 28.744C14.816 28.744 16.5973 28.1253 17.92 26.888C19.264 25.6293 19.936 23.9333 19.936 21.8C19.936 19.6667 19.264 17.9813 17.92 16.744C16.5973 15.4853 14.816 14.856 12.576 14.856H7.84V28.744H12.576ZM42.2775 28.84V33H24.9335V10.6H41.8615V14.76H30.0855V19.624H40.4855V23.656H30.0855V28.84H42.2775ZM49.6023 33.384C47.8316 33.384 46.1143 33.1493 44.4503 32.68C42.8076 32.1893 41.4849 31.56 40.4823 30.792L42.2423 26.888C43.2023 27.592 44.3436 28.1573 45.6663 28.584C46.9889 29.0107 48.3116 29.224 49.6343 29.224C51.1063 29.224 52.1943 29.0107 52.8983 28.584C53.6023 28.136 53.9543 27.5493 53.9543 26.824C53.9543 26.2907 53.7409 25.8533 53.3143 25.512C52.9089 25.1493 52.3756 24.8613 51.7143 24.648C51.0743 24.4347 50.1996 24.2 49.0903 23.944C47.3836 23.5387 45.9863 23.1333 44.8983 22.728C43.8103 22.3227 42.8716 21.672 42.0823 20.776C41.3143 19.88 40.9303 18.6853 40.9303 17.192C40.9303 15.8907 41.2823 14.7173 41.9863 13.672C42.6903 12.6053 43.7463 11.7627 45.1543 11.144C46.5836 10.5253 48.3223 10.216 50.3703 10.216C51.7996 10.216 53.1969 10.3867 54.5623 10.728C55.9276 11.0693 57.1223 11.56 58.1463 12.2L56.5463 16.136C54.4769 14.9627 52.4076 14.376 50.3383 14.376C48.8876 14.376 47.8103 14.6107 47.1063 15.08C46.4236 15.5493 46.0823 16.168 46.0823 16.936C46.0823 17.704 46.4769 18.28 47.2663 18.664C48.0769 19.0267 49.3036 19.3893 50.9463 19.752C52.6529 20.1573 54.0503 20.5627 55.1383 20.968C56.2263 21.3733 57.1543 22.0133 57.9223 22.888C58.7116 23.7627 59.1063 24.9467 59.1063 26.44C59.1063 27.72 58.7436 28.8933 58.0183 29.96C57.3143 31.0053 56.2476 31.8373 54.8183 32.456C53.3889 33.0747 51.6503 33.384 49.6023 33.384ZM58.4885 10.6H63.6725V33H58.4885V10.6ZM79.9645 21.448H84.7005V30.536C83.4845 31.4533 82.0765 32.1573 80.4765 32.648C78.8765 33.1387 77.2658 33.384 75.6445 33.384C73.3192 33.384 71.2285 32.8933 69.3725 31.912C67.5165 30.9093 66.0552 29.5333 64.9885 27.784C63.9432 26.0133 63.4205 24.0187 63.4205 21.8C63.4205 19.5813 63.9432 17.5973 64.9885 15.848C66.0552 14.0773 67.5272 12.7013 69.4045 11.72C71.2818 10.7173 73.3938 10.216 75.7405 10.216C77.7032 10.216 79.4845 10.5467 81.0845 11.208C82.6845 11.8693 84.0285 12.8293 85.1165 14.088L81.7885 17.16C80.1885 15.4747 78.2578 14.632 75.9965 14.632C74.5672 14.632 73.2978 14.9307 72.1885 15.528C71.0792 16.1253 70.2152 16.968 69.5965 18.056C68.9778 19.144 68.6685 20.392 68.6685 21.8C68.6685 23.1867 68.9778 24.424 69.5965 25.512C70.2152 26.6 71.0685 27.4533 72.1565 28.072C73.2658 28.6693 74.5245 28.968 75.9325 28.968C77.4258 28.968 78.7698 28.648 79.9645 28.008V21.448ZM105.9 10.6V33H101.644L90.476 19.4V33H85.356V10.6H89.644L100.78 24.2V10.6H105.9Z" fill="url(#paint0_linear_31_2)"/>
<path d="M77.816 40.2L78.5913 39.5685L77.8771 38.6916L77.0943 39.5078L77.816 40.2ZM74.808 43.336L74.0863 42.6438L73.808 42.9339V43.336H74.808ZM74.808 49V50H75.808V49H74.808ZM69.656 49H68.656V50H69.656V49ZM69.656 26.6V25.6H68.656V26.6H69.656ZM74.808 26.6H75.808V25.6H74.808V26.6ZM74.808 37.064H73.808V39.5723L75.5337 37.752L74.808 37.064ZM84.728 26.6V25.6H84.2981L84.0023 25.912L84.728 26.6ZM90.488 26.6L91.2205 27.2808L92.7828 25.6H90.488V26.6ZM81.208 36.584L80.4755 35.9032L79.8914 36.5316L80.4238 37.2045L81.208 36.584ZM91.032 49V50H93.0984L91.8162 48.3795L91.032 49ZM84.984 49L84.2087 49.6315L84.5088 50H84.984V49ZM77.0943 39.5078L74.0863 42.6438L75.5297 44.0282L78.5377 40.8922L77.0943 39.5078ZM73.808 43.336V49H75.808V43.336H73.808ZM74.808 48H69.656V50H74.808V48ZM70.656 49V26.6H68.656V49H70.656ZM69.656 27.6H74.808V25.6H69.656V27.6ZM73.808 26.6V37.064H75.808V26.6H73.808ZM75.5337 37.752L85.4537 27.288L84.0023 25.912L74.0823 36.376L75.5337 37.752ZM84.728 27.6H90.488V25.6H84.728V27.6ZM89.7555 25.9192L80.4755 35.9032L81.9405 37.2648L91.2205 27.2808L89.7555 25.9192ZM80.4238 37.2045L90.2478 49.6205L91.8162 48.3795L81.9922 35.9635L80.4238 37.2045ZM91.032 48H84.984V50H91.032V48ZM85.7593 48.3685L78.5913 39.5685L77.0407 40.8315L84.2087 49.6315L85.7593 48.3685ZM106.847 26.6H107.847V25.6H106.847V26.6ZM106.847 49V50H107.847V49H106.847ZM102.591 49L101.819 49.6346L102.119 50H102.591V49ZM91.4235 35.4L92.1963 34.7654L90.4235 32.6065V35.4H91.4235ZM91.4235 49V50H92.4235V49H91.4235ZM86.3035 49H85.3035V50H86.3035V49ZM86.3035 26.6V25.6H85.3035V26.6H86.3035ZM90.5915 26.6L91.3652 25.9665L91.0651 25.6H90.5915V26.6ZM101.728 40.2L100.954 40.8335L102.728 42.9997V40.2H101.728ZM101.728 26.6V25.6H100.728V26.6H101.728ZM105.847 26.6V49H107.847V26.6H105.847ZM106.847 48H102.591V50H106.847V48ZM103.364 48.3654L92.1963 34.7654L90.6507 36.0346L101.819 49.6346L103.364 48.3654ZM90.4235 35.4V49H92.4235V35.4H90.4235ZM91.4235 48H86.3035V50H91.4235V48ZM87.3035 49V26.6H85.3035V49H87.3035ZM86.3035 27.6H90.5915V25.6H86.3035V27.6ZM89.8178 27.2335L100.954 40.8335L102.501 39.5665L91.3652 25.9665L89.8178 27.2335ZM102.728 40.2V26.6H100.728V40.2H102.728ZM101.728 27.6H106.847V25.6H101.728V27.6ZM105.107 26.6V25.6H104.107V26.6H105.107ZM110.291 26.6H111.291V25.6H110.291V26.6ZM110.291 49V50H111.291V49H110.291ZM105.107 49H104.107V50H105.107V49ZM105.107 27.6H110.291V25.6H105.107V27.6ZM109.291 26.6V49H111.291V26.6H109.291ZM110.291 48H105.107V50H110.291V48ZM106.107 49V26.6H104.107V49H106.107ZM123.703 37.448V36.448H122.703V37.448H123.703ZM128.439 37.448H129.439V36.448H128.439V37.448ZM128.439 46.536L129.041 47.3343L129.439 47.0343V46.536H128.439ZM124.215 48.648L124.508 49.6041L124.215 48.648ZM113.111 47.912L112.636 48.7919L112.644 48.796L113.111 47.912ZM108.727 43.784L107.866 44.2924L107.87 44.2985L107.873 44.3046L108.727 43.784ZM108.727 31.848L107.871 31.332L107.869 31.335L108.727 31.848ZM113.143 27.72L113.607 28.6063L113.614 28.6021L113.143 27.72ZM124.823 27.208L125.205 26.2838L124.823 27.208ZM128.855 30.088L129.534 30.8228L130.245 30.1663L129.612 29.434L128.855 30.088ZM125.527 33.16L124.802 33.8485L125.481 34.5636L126.206 33.8948L125.527 33.16ZM115.927 31.528L116.401 32.4085L115.927 31.528ZM113.335 34.056L114.205 34.5503L113.335 34.056ZM113.335 41.512L112.466 42.0063L113.335 41.512ZM115.895 44.072L115.401 44.9413L115.411 44.947L115.421 44.9525L115.895 44.072ZM123.703 44.008L124.175 44.8895L124.703 44.6067V44.008H123.703ZM123.703 38.448H128.439V36.448H123.703V38.448ZM127.439 37.448V46.536H129.439V37.448H127.439ZM127.837 45.7377C126.723 46.5782 125.422 47.2321 123.922 47.6919L124.508 49.6041C126.209 49.0826 127.724 48.3284 129.041 47.3343L127.837 45.7377ZM123.922 47.6919C122.414 48.1544 120.902 48.384 119.383 48.384V50.384C121.107 50.384 122.817 50.1229 124.508 49.6041L123.922 47.6919ZM119.383 48.384C117.203 48.384 115.276 47.9252 113.579 47.028L112.644 48.796C114.659 49.8614 116.913 50.384 119.383 50.384V48.384ZM113.587 47.0322C111.881 46.111 110.553 44.857 109.581 43.2634L107.873 44.3046C109.035 46.2097 110.629 47.7076 112.636 48.7918L113.587 47.0322ZM109.588 43.2756C108.641 41.6711 108.159 39.8545 108.159 37.8H106.159C106.159 40.1829 106.723 42.3556 107.866 44.2924L109.588 43.2756ZM108.159 37.8C108.159 35.7454 108.641 33.9416 109.586 32.361L107.869 31.335C106.723 33.2531 106.159 35.4173 106.159 37.8H108.159ZM109.584 32.364C110.553 30.7545 111.888 29.5048 113.607 28.6062L112.68 26.8338C110.644 27.8979 109.034 29.4001 107.871 31.332L109.584 32.364ZM113.614 28.6021C115.332 27.6845 117.28 27.216 119.479 27.216V25.216C116.985 25.216 114.709 25.7501 112.672 26.8379L113.614 28.6021ZM119.479 27.216C121.328 27.216 122.978 27.5272 124.441 28.1322L125.205 26.2838C123.469 25.5662 121.556 25.216 119.479 25.216V27.216ZM124.441 28.1322C125.903 28.7364 127.117 29.6062 128.099 30.742L129.612 29.434C128.418 28.0525 126.943 27.0023 125.205 26.2838L124.441 28.1322ZM128.177 29.3532L124.849 32.4252L126.206 33.8948L129.534 30.8228L128.177 29.3532ZM126.252 32.4715C124.47 30.5935 122.279 29.632 119.735 29.632V31.632C121.714 31.632 123.385 32.3558 124.802 33.8485L126.252 32.4715ZM119.735 29.632C118.163 29.632 116.727 29.9617 115.453 30.6475L116.401 32.4085C117.346 31.8996 118.449 31.632 119.735 31.632V29.632ZM115.453 30.6475C114.18 31.3333 113.178 32.3093 112.466 33.5617L114.205 34.5503C114.73 33.6267 115.456 32.9174 116.401 32.4085L115.453 30.6475ZM112.466 33.5617C111.751 34.8184 111.407 36.2408 111.407 37.8H113.407C113.407 36.5432 113.682 35.4696 114.205 34.5503L112.466 33.5617ZM111.407 37.8C111.407 39.3408 111.753 40.7518 112.466 42.0063L114.205 41.0177C113.681 40.0962 113.407 39.0325 113.407 37.8H111.407ZM112.466 42.0063C113.174 43.2508 114.156 44.2337 115.401 44.9413L116.39 43.2027C115.458 42.673 114.734 41.9492 114.205 41.0177L112.466 42.0063ZM115.421 44.9525C116.693 45.6371 118.118 45.968 119.671 45.968V43.968C118.409 43.968 117.317 43.7015 116.369 43.1915L115.421 44.9525ZM119.671 45.968C121.312 45.968 122.821 45.615 124.175 44.8895L123.231 43.1265C122.196 43.681 121.017 43.968 119.671 43.968V45.968ZM124.703 44.008V37.448H122.703V44.008H124.703ZM146.759 26.6H147.759V25.6H146.759V26.6ZM146.759 49V50H147.759V49H146.759ZM141.575 49H140.575V50H141.575V49ZM141.575 39.816H142.575V38.816H141.575V39.816ZM131.399 39.816V38.816H130.399V39.816H131.399ZM131.399 49V50H132.399V49H131.399ZM126.215 49H125.215V50H126.215V49ZM126.215 26.6V25.6H125.215V26.6H126.215ZM131.399 26.6H132.399V25.6H131.399V26.6ZM131.399 35.432H130.399V36.432H131.399V35.432ZM141.575 35.432V36.432H142.575V35.432H141.575ZM141.575 26.6V25.6H140.575V26.6H141.575ZM145.759 26.6V49H147.759V26.6H145.759ZM146.759 48H141.575V50H146.759V48ZM142.575 49V39.816H140.575V49H142.575ZM141.575 38.816H131.399V40.816H141.575V38.816ZM130.399 39.816V49H132.399V39.816H130.399ZM131.399 48H126.215V50H131.399V48ZM127.215 49V26.6H125.215V49H127.215ZM126.215 27.6H131.399V25.6H126.215V27.6ZM130.399 26.6V35.432H132.399V26.6H130.399ZM131.399 36.432H141.575V34.432H131.399V36.432ZM142.575 35.432V26.6H140.575V35.432H142.575ZM141.575 27.6H146.759V25.6H141.575V27.6ZM149.659 30.824H150.659V29.824H149.659V30.824ZM142.491 30.824H141.491V31.824H142.491V30.824ZM142.491 26.6V25.6H141.491V26.6H142.491ZM162.011 26.6H163.011V25.6H162.011V26.6ZM162.011 30.824V31.824H163.011V30.824H162.011ZM154.843 30.824V29.824H153.843V30.824H154.843ZM154.843 49V50H155.843V49H154.843ZM149.659 49H148.659V50H149.659V49ZM149.659 29.824H142.491V31.824H149.659V29.824ZM143.491 30.824V26.6H141.491V30.824H143.491ZM142.491 27.6H162.011V25.6H142.491V27.6ZM161.011 26.6V30.824H163.011V26.6H161.011ZM162.011 29.824H154.843V31.824H162.011V29.824ZM153.843 30.824V49H155.843V30.824H153.843ZM154.843 48H149.659V50H154.843V48ZM150.659 49V30.824H148.659V49H150.659ZM159.812 48.68L159.525 49.6382L159.533 49.6404L159.54 49.6425L159.812 48.68ZM155.844 46.792L154.932 46.381L154.606 47.1038L155.235 47.5859L155.844 46.792ZM157.604 42.888L158.195 42.0816L157.199 41.3515L156.692 42.477L157.604 42.888ZM161.028 44.584L161.335 43.6323L161.028 44.584ZM168.26 44.584L168.778 45.4392L168.787 45.4335L168.796 45.4277L168.26 44.584ZM168.676 41.512L168.009 42.2572L168.029 42.2756L168.051 42.2929L168.676 41.512ZM167.076 40.648L166.759 41.5967L166.769 41.5997L167.076 40.648ZM164.451 39.944L164.22 40.917L164.227 40.9184L164.451 39.944ZM160.26 38.728L160.609 37.7909L160.26 38.728ZM157.444 36.776L156.684 37.4269L156.693 37.437L157.444 36.776ZM157.348 29.672L158.177 30.2306L158.182 30.2228L157.348 29.672ZM160.516 27.144L160.118 26.2263L160.113 26.2285L160.516 27.144ZM169.924 26.728L170.166 25.7579V25.7579L169.924 26.728ZM173.508 28.2L174.434 28.5766L174.751 27.7976L174.037 27.352L173.508 28.2ZM171.908 32.136L171.414 33.0059L172.405 33.5676L172.834 32.5126L171.908 32.136ZM162.467 31.08L161.913 30.2479L161.907 30.2519L161.901 30.256L162.467 31.08ZM162.628 34.664L162.19 35.5632L162.204 35.5703L162.219 35.5768L162.628 34.664ZM166.308 35.752L166.539 34.7791L166.531 34.7772L166.523 34.7755L166.308 35.752ZM170.5 36.968L170.849 36.0309L170.5 36.968ZM173.284 38.888L172.532 39.5479L172.541 39.558L173.284 38.888ZM173.38 45.96L172.553 45.3977L172.55 45.4014L173.38 45.96ZM170.18 48.456L169.782 47.5383L170.18 48.456ZM164.964 48.384C163.282 48.384 161.657 48.1614 160.083 47.7176L159.54 49.6425C161.295 50.1373 163.103 50.384 164.964 50.384V48.384ZM160.098 47.7218C158.533 47.2543 157.33 46.6711 156.452 45.9981L155.235 47.5859C156.362 48.4489 157.805 49.1244 159.525 49.6382L160.098 47.7218ZM156.755 47.203L158.515 43.299L156.692 42.477L154.932 46.381L156.755 47.203ZM157.012 43.6944C158.072 44.4714 159.313 45.0815 160.72 45.5357L161.335 43.6323C160.097 43.2331 159.055 42.7126 158.195 42.0816L157.012 43.6944ZM160.72 45.5357C162.137 45.9927 163.563 46.224 164.995 46.224V44.224C163.782 44.224 162.563 44.0286 161.335 43.6323L160.72 45.5357ZM164.995 46.224C166.526 46.224 167.837 46.0091 168.778 45.4392L167.741 43.7288C167.274 44.0122 166.409 44.224 164.995 44.224V46.224ZM168.796 45.4277C169.738 44.8285 170.316 43.9476 170.316 42.824H168.316C168.316 43.1511 168.189 43.4435 167.723 43.7403L168.796 45.4277ZM170.316 42.824C170.316 41.9783 169.957 41.2568 169.3 40.7311L168.051 42.2929C168.247 42.4498 168.316 42.603 168.316 42.824H170.316ZM169.342 40.7668C168.808 40.2888 168.141 39.9411 167.383 39.6963L166.769 41.5997C167.332 41.7816 167.732 42.0098 168.009 42.2572L169.342 40.7668ZM167.392 39.6993C166.708 39.4715 165.799 39.2286 164.676 38.9696L164.227 40.9184C165.323 41.1714 166.163 41.3978 166.759 41.5967L167.392 39.6993ZM164.683 38.9711C162.998 38.571 161.644 38.1766 160.609 37.7909L159.91 39.6651C161.051 40.0901 162.492 40.5064 164.22 40.9169L164.683 38.9711ZM160.609 37.7909C159.68 37.4448 158.877 36.8909 158.194 36.115L156.693 37.437C157.588 38.4531 158.663 39.2005 159.91 39.6651L160.609 37.7909ZM158.203 36.1252C157.628 35.4545 157.292 34.5118 157.292 33.192H155.292C155.292 34.8589 155.723 36.3055 156.684 37.4268L158.203 36.1252ZM157.292 33.192C157.292 32.0828 157.588 31.1052 158.177 30.2306L156.518 29.1134C155.699 30.3294 155.292 31.6985 155.292 33.192H157.292ZM158.182 30.2228C158.76 29.3469 159.65 28.6167 160.918 28.0595L160.113 26.2285C158.565 26.9087 157.343 27.8638 156.513 29.1212L158.182 30.2228ZM160.913 28.0617C162.184 27.5115 163.779 27.216 165.732 27.216V25.216C163.588 25.216 161.706 25.5391 160.118 26.2263L160.913 28.0617ZM165.732 27.216C167.08 27.216 168.396 27.3769 169.681 27.6981L170.166 25.7579C168.72 25.3964 167.241 25.216 165.732 25.216V27.216ZM169.681 27.6981C170.961 28.0182 172.056 28.4718 172.978 29.048L174.037 27.352C172.911 26.6482 171.617 26.1205 170.166 25.7579L169.681 27.6981ZM172.581 27.8234L170.981 31.7594L172.834 32.5126L174.434 28.5766L172.581 27.8234ZM172.401 31.2661C170.204 30.0204 167.966 29.376 165.7 29.376V31.376C167.572 31.376 169.473 31.9049 171.414 33.0059L172.401 31.2661ZM165.7 29.376C164.177 29.376 162.861 29.6158 161.913 30.2479L163.022 31.9121C163.482 31.6056 164.321 31.376 165.7 31.376V29.376ZM161.901 30.256C160.972 30.8945 160.444 31.8093 160.444 32.936H162.444C162.444 32.5267 162.598 32.2041 163.034 31.904L161.901 30.256ZM160.444 32.936C160.444 33.5007 160.592 34.0382 160.915 34.5092C161.232 34.9726 161.679 35.3146 162.19 35.5632L163.065 33.7648C162.787 33.6294 162.642 33.4914 162.564 33.3788C162.492 33.2738 162.444 33.1393 162.444 32.936H160.444ZM162.219 35.5768C163.124 35.9818 164.431 36.3617 166.092 36.7285L166.523 34.7755C164.899 34.417 163.752 34.0716 163.036 33.7512L162.219 35.5768ZM166.076 36.7249C167.761 37.125 169.115 37.5194 170.15 37.9051L170.849 36.0309C169.708 35.6059 168.267 35.1896 166.539 34.7791L166.076 36.7249ZM170.15 37.9051C171.083 38.2525 171.873 38.7971 172.532 39.5478L174.035 38.2282C173.158 37.2296 172.092 36.4941 170.849 36.0309L170.15 37.9051ZM172.541 39.558C173.124 40.2037 173.467 41.1256 173.467 42.44H175.467C175.467 40.7677 175.022 39.3217 174.026 38.218L172.541 39.558ZM173.467 42.44C173.467 43.5178 173.166 44.4955 172.553 45.3977L174.206 46.5223C175.044 45.2912 175.467 43.9222 175.467 42.44H173.467ZM172.55 45.4014C171.976 46.2545 171.078 46.9776 169.782 47.5383L170.577 49.3737C172.14 48.6971 173.375 47.7562 174.209 46.5186L172.55 45.4014ZM169.782 47.5383C168.511 48.0885 166.916 48.384 164.964 48.384V50.384C167.107 50.384 168.989 50.0609 170.577 49.3737L169.782 47.5383Z" fill="url(#paint1_linear_31_2)"/>
<defs>
<linearGradient id="paint0_linear_31_2" x1="36" y1="10.5" x2="67.5" y2="40" gradientUnits="userSpaceOnUse">
<stop stop-color="#0BB6FF"/>
<stop offset="0.500909" stop-color="#6049A1"/>
<stop offset="0.502244" stop-color="#8544F0"/>
<stop offset="1" stop-color="#FF045F"/>
</linearGradient>
<linearGradient id="paint1_linear_31_2" x1="123.663" y1="27.5" x2="120.78" y2="56.9294" gradientUnits="userSpaceOnUse">
<stop stop-color="#0BB6FF"/>
<stop offset="1" stop-color="#FF055F"/>
</linearGradient>
</defs>
</svg>
