<svg width="41" height="23" viewBox="0 0 41 23" fill="none" xmlns="http://www.w3.org/2000/svg">
<path fill-rule="evenodd" clip-rule="evenodd" d="M27.9544 19.1696L27 17.75C27.1415 17.75 27.912 17.5912 28.9914 17.3687C31.2903 16.8949 34.9907 16.1323 37 16L30.5294 23L28.6091 20.1436C26.683 20.5685 24.6271 20.8426 22.5094 20.9495C17.7894 21.1876 13.0543 20.5801 9.11081 19.2304C5.16733 17.8808 2.25948 15.8726 0.882726 13.548C-0.49403 11.2234 -0.254508 8.72615 1.56048 6.48183C3.37547 4.23752 6.65362 2.38497 10.8364 1.23984C15.0191 0.0947098 19.8477 -0.272149 24.4994 0.201773C29.151 0.675694 33.3379 1.96107 36.3467 3.8389C39.3555 5.71672 41 8.0708 41 10.5L38.9951 10.5C38.9951 8.30837 37.5115 6.18452 34.7969 4.49035C32.0824 2.79618 28.305 1.63651 24.1082 1.20894C19.9115 0.781367 15.5552 1.11235 11.7815 2.14548C8.00779 3.17862 5.05024 4.84999 3.41276 6.87481C1.77528 8.89963 1.55918 11.1526 2.80129 13.2499C4.0434 15.3472 6.66686 17.159 10.2247 18.3766C13.7825 19.5942 18.0545 20.1423 22.3128 19.9275C24.2742 19.8286 26.1768 19.5706 27.9544 19.1696Z" fill="url(#paint0_linear_9_1173)"/>
<defs>
<linearGradient id="paint0_linear_9_1173" x1="20.5" y1="0" x2="20.5" y2="23" gradientUnits="userSpaceOnUse">
<stop stop-color="#0BB6FF"/>
<stop offset="1" stop-color="#FF055F" stop-opacity="0.89"/>
</linearGradient>
</defs>
</svg>
