<svg width="34" height="31" viewBox="0 0 34 31" fill="none" xmlns="http://www.w3.org/2000/svg">
<path fill-rule="evenodd" clip-rule="evenodd" d="M0 2C0 0.895431 0.895431 0 2 0H19C20.1046 0 21 0.895431 21 2V6H25C26.1046 6 27 6.89543 27 8V11H32C33.1046 11 34 11.8954 34 13V29C34 30.1046 33.1046 31 32 31H15C13.8954 31 13 30.1046 13 29V26H8C6.89543 26 6 25.1046 6 24V20H2C0.89543 20 0 19.1046 0 18V2Z" fill="url(#paint0_linear_9_1161)"/>
<defs>
<linearGradient id="paint0_linear_9_1161" x1="2.5" y1="2.45947e-07" x2="34" y2="31" gradientUnits="userSpaceOnUse">
<stop stop-color="#0BB6FF"/>
<stop offset="1" stop-color="#FF055F"/>
</linearGradient>
</defs>
</svg>
