<svg width="29" height="28" viewBox="0 0 29 28" fill="none" xmlns="http://www.w3.org/2000/svg">
<path fill-rule="evenodd" clip-rule="evenodd" d="M2 0C0.895431 0 0 0.895428 0 2V18.1389C0 19.2435 0.895432 20.1389 2 20.1389H7.66667C8.77124 20.1389 9.66667 19.2435 9.66667 18.1389V2C9.66667 0.895431 8.77124 0 7.66667 0H2ZM12.4722 0C11.3677 0 10.4722 0.895429 10.4722 2V10.0833C10.4722 11.1879 11.3677 12.0833 12.4722 12.0833H27C28.1046 12.0833 29 11.1879 29 10.0833V2C29 0.89543 28.1046 0 27 0H12.4722ZM10.4722 14.8889C10.4722 13.7843 11.3677 12.8889 12.4722 12.8889H27C28.1046 12.8889 29 13.7843 29 14.8889V17.3333C29 18.4379 28.1046 19.3333 27 19.3333H12.4722C11.3677 19.3333 10.4722 18.4379 10.4722 17.3333V14.8889ZM2 20.9444C0.895431 20.9444 0 21.8399 0 22.9444V25.3889C0 26.4935 0.89543 27.3889 2 27.3889H27C28.1046 27.3889 29 26.4935 29 25.3889V22.9444C29 21.8399 28.1046 20.9444 27 20.9444H2Z" fill="url(#paint0_linear_9_1169)"/>
<defs>
<linearGradient id="paint0_linear_9_1169" x1="-2.01389" y1="1.07602e-07" x2="14.5" y2="27.3889" gradientUnits="userSpaceOnUse">
<stop stop-color="#0BB6FF"/>
<stop offset="1" stop-color="#FF055F"/>
</linearGradient>
</defs>
</svg>
